<style>foreignObject div { overflow: visible !important; }</style><svg id="mermaid-1780940657915" width="100%" xmlns="http://www.w3.org/2000/svg" xmlns:xlink="http://www.w3.org/1999/xlink" class="classDiagram" style="max-width: 921.25390625px;" viewBox="0 0 921.25390625 860" role="graphics-document document" aria-roledescription="class"><style>#mermaid-1780940657915{font-family:"trebuchet ms",verdana,arial,sans-serif;font-size:16px;fill:#333;}@keyframes edge-animation-frame{from{stroke-dashoffset:0;}}@keyframes dash{to{stroke-dashoffset:0;}}#mermaid-1780940657915 .edge-animation-slow{stroke-dasharray:9,5!important;stroke-dashoffset:900;animation:dash 50s linear infinite;stroke-linecap:round;}#mermaid-1780940657915 .edge-animation-fast{stroke-dasharray:9,5!important;stroke-dashoffset:900;animation:dash 20s linear infinite;stroke-linecap:round;}#mermaid-1780940657915 .error-icon{fill:#552222;}#mermaid-1780940657915 .error-text{fill:#552222;stroke:#552222;}#mermaid-1780940657915 .edge-thickness-normal{stroke-width:1px;}#mermaid-1780940657915 .edge-thickness-thick{stroke-width:3.5px;}#mermaid-1780940657915 .edge-pattern-solid{stroke-dasharray:0;}#mermaid-1780940657915 .edge-thickness-invisible{stroke-width:0;fill:none;}#mermaid-1780940657915 .edge-pattern-dashed{stroke-dasharray:3;}#mermaid-1780940657915 .edge-pattern-dotted{stroke-dasharray:2;}#mermaid-1780940657915 .marker{fill:#333333;stroke:#333333;}#mermaid-1780940657915 .marker.cross{stroke:#333333;}#mermaid-1780940657915 svg{font-family:"trebuchet ms",verdana,arial,sans-serif;font-size:16px;}#mermaid-1780940657915 p{margin:0;}#mermaid-1780940657915 g.classGroup text{fill:#9370DB;stroke:none;font-family:"trebuchet ms",verdana,arial,sans-serif;font-size:10px;}#mermaid-1780940657915 g.classGroup text .title{font-weight:bolder;}#mermaid-1780940657915 .cluster-label text{fill:#333;}#mermaid-1780940657915 .cluster-label span{color:#333;}#mermaid-1780940657915 .cluster-label span p{background-color:transparent;}#mermaid-1780940657915 .cluster rect{fill:#ffffde;stroke:#aaaa33;stroke-width:1px;}#mermaid-1780940657915 .cluster text{fill:#333;}#mermaid-1780940657915 .cluster span{color:#333;}#mermaid-1780940657915 .nodeLabel,#mermaid-1780940657915 .edgeLabel{color:#131300;}#mermaid-1780940657915 .edgeLabel .label rect{fill:#ECECFF;}#mermaid-1780940657915 .label text{fill:#131300;}#mermaid-1780940657915 .labelBkg{background:#ECECFF;}#mermaid-1780940657915 .edgeLabel .label span{background:#ECECFF;}#mermaid-1780940657915 .classTitle{font-weight:bolder;}#mermaid-1780940657915 .node rect,#mermaid-1780940657915 .node circle,#mermaid-1780940657915 .node ellipse,#mermaid-1780940657915 .node polygon,#mermaid-1780940657915 .node path{fill:#ECECFF;stroke:#9370DB;stroke-width:1px;}#mermaid-1780940657915 .divider{stroke:#9370DB;stroke-width:1;}#mermaid-1780940657915 g.clickable{cursor:pointer;}#mermaid-1780940657915 g.classGroup rect{fill:#ECECFF;stroke:#9370DB;}#mermaid-1780940657915 g.classGroup line{stroke:#9370DB;stroke-width:1;}#mermaid-1780940657915 .classLabel .box{stroke:none;stroke-width:0;fill:#ECECFF;opacity:0.5;}#mermaid-1780940657915 .classLabel .label{fill:#9370DB;font-size:10px;}#mermaid-1780940657915 .relation{stroke:#333333;stroke-width:1;fill:none;}#mermaid-1780940657915 .dashed-line{stroke-dasharray:3;}#mermaid-1780940657915 .dotted-line{stroke-dasharray:1 2;}#mermaid-1780940657915 #compositionStart,#mermaid-1780940657915 .composition{fill:#333333!important;stroke:#333333!important;stroke-width:1;}#mermaid-1780940657915 #compositionEnd,#mermaid-1780940657915 .composition{fill:#333333!important;stroke:#333333!important;stroke-width:1;}#mermaid-1780940657915 #dependencyStart,#mermaid-1780940657915 .dependency{fill:#333333!important;stroke:#333333!important;stroke-width:1;}#mermaid-1780940657915 #dependencyStart,#mermaid-1780940657915 .dependency{fill:#333333!important;stroke:#333333!important;stroke-width:1;}#mermaid-1780940657915 #extensionStart,#mermaid-1780940657915 .extension{fill:transparent!important;stroke:#333333!important;stroke-width:1;}#mermaid-1780940657915 #extensionEnd,#mermaid-1780940657915 .extension{fill:transparent!important;stroke:#333333!important;stroke-width:1;}#mermaid-1780940657915 #aggregationStart,#mermaid-1780940657915 .aggregation{fill:transparent!important;stroke:#333333!important;stroke-width:1;}#mermaid-1780940657915 #aggregationEnd,#mermaid-1780940657915 .aggregation{fill:transparent!important;stroke:#333333!important;stroke-width:1;}#mermaid-1780940657915 #lollipopStart,#mermaid-1780940657915 .lollipop{fill:#ECECFF!important;stroke:#333333!important;stroke-width:1;}#mermaid-1780940657915 #lollipopEnd,#mermaid-1780940657915 .lollipop{fill:#ECECFF!important;stroke:#333333!important;stroke-width:1;}#mermaid-1780940657915 .edgeTerminals{font-size:11px;line-height:initial;}#mermaid-1780940657915 .classTitleText{text-anchor:middle;font-size:18px;fill:#333;}#mermaid-1780940657915 .label-icon{display:inline-block;height:1em;overflow:visible;vertical-align:-0.125em;}#mermaid-1780940657915 .node .label-icon path{fill:currentColor;stroke:revert;stroke-width:revert;}#mermaid-1780940657915 :root{--mermaid-font-family:"trebuchet ms",verdana,arial,sans-serif;}</style><g><defs><marker id="mermaid-1780940657915_class-aggregationStart" class="marker aggregation class" refX="18" refY="7" markerWidth="190" markerHeight="240" orient="auto"><path d="M 18,7 L9,13 L1,7 L9,1 Z"></path></marker></defs><defs><marker id="mermaid-1780940657915_class-aggregationEnd" class="marker aggregation class" refX="1" refY="7" markerWidth="20" markerHeight="28" orient="auto"><path d="M 18,7 L9,13 L1,7 L9,1 Z"></path></marker></defs><defs><marker id="mermaid-1780940657915_class-extensionStart" class="marker extension class" refX="18" refY="7" markerWidth="190" markerHeight="240" orient="auto"><path d="M 1,7 L18,13 V 1 Z"></path></marker></defs><defs><marker id="mermaid-1780940657915_class-extensionEnd" class="marker extension class" refX="1" refY="7" markerWidth="20" markerHeight="28" orient="auto"><path d="M 1,1 V 13 L18,7 Z"></path></marker></defs><defs><marker id="mermaid-1780940657915_class-compositionStart" class="marker composition class" refX="18" refY="7" markerWidth="190" markerHeight="240" orient="auto"><path d="M 18,7 L9,13 L1,7 L9,1 Z"></path></marker></defs><defs><marker id="mermaid-1780940657915_class-compositionEnd" class="marker composition class" refX="1" refY="7" markerWidth="20" markerHeight="28" orient="auto"><path d="M 18,7 L9,13 L1,7 L9,1 Z"></path></marker></defs><defs><marker id="mermaid-1780940657915_class-dependencyStart" class="marker dependency class" refX="6" refY="7" markerWidth="190" markerHeight="240" orient="auto"><path d="M 5,7 L9,13 L1,7 L9,1 Z"></path></marker></defs><defs><marker id="mermaid-1780940657915_class-dependencyEnd" class="marker dependency class" refX="13" refY="7" markerWidth="20" markerHeight="28" orient="auto"><path d="M 18,7 L9,13 L14,7 L9,1 Z"></path></marker></defs><defs><marker id="mermaid-1780940657915_class-lollipopStart" class="marker lollipop class" refX="13" refY="7" markerWidth="190" markerHeight="240" orient="auto"><circle fill="transparent" cx="7" cy="7" r="6"></circle></marker></defs><defs><marker id="mermaid-1780940657915_class-lollipopEnd" class="marker lollipop class" refX="1" refY="7" markerWidth="190" markerHeight="240" orient="auto"><circle fill="transparent" cx="7" cy="7" r="6"></circle></marker></defs><g class="root"><g class="clusters"></g><g class="edgePaths"><path d="M137.748,248L132.762,254.167C127.776,260.333,117.804,272.667,112.818,292C107.832,311.333,107.832,337.667,107.832,350.833L107.832,364" id="id_User_Profile_1" class=" edge-thickness-normal edge-pattern-solid relation" style=";;;" data-edge="true" data-et="edge" data-id="id_User_Profile_1" data-points="W3sieCI6MTM3Ljc0ODE1ODgzNzU3OTY0LCJ5IjoyNDh9LHsieCI6MTA3LjgzMjAzMTI1LCJ5IjoyODV9LHsieCI6MTA3LjgzMjAzMTI1LCJ5IjozNzB9XQ==" marker-end="url(#mermaid-1780940657915_class-dependencyEnd)"></path><path d="M331.799,248L336.785,254.167C341.771,260.333,351.743,272.667,356.729,284C361.715,295.333,361.715,305.667,361.715,310.833L361.715,316" id="id_User_Quiz_2" class=" edge-thickness-normal edge-pattern-solid relation" style=";;;" data-edge="true" data-et="edge" data-id="id_User_Quiz_2" data-points="W3sieCI6MzMxLjc5ODcxNjE2MjQyMDM2LCJ5IjoyNDh9LHsieCI6MzYxLjcxNDg0Mzc1LCJ5IjoyODV9LHsieCI6MzYxLjcxNDg0Mzc1LCJ5IjozMjJ9XQ==" marker-end="url(#mermaid-1780940657915_class-dependencyEnd)"></path><path d="M361.715,562L361.715,568.167C361.715,574.333,361.715,586.667,361.715,598C361.715,609.333,361.715,619.667,361.715,624.833L361.715,630" id="id_Quiz_Question_3" class=" edge-thickness-normal edge-pattern-solid relation" style=";;;" data-edge="true" data-et="edge" data-id="id_Quiz_Question_3" data-points="W3sieCI6MzYxLjcxNDg0Mzc1LCJ5Ijo1NjJ9LHsieCI6MzYxLjcxNDg0Mzc1LCJ5Ijo1OTl9LHsieCI6MzYxLjcxNDg0Mzc1LCJ5Ijo2MzZ9XQ==" marker-end="url(#mermaid-1780940657915_class-dependencyEnd)"></path></g><g class="edgeLabels"><g class="edgeLabel" transform="translate(107.83203125, 285)"><g class="label" data-id="id_User_Profile_1" transform="translate(-21.7890625, -12)"><foreignObject width="43.578125" height="44"><div xmlns="http://www.w3.org/1999/xhtml" class="labelBkg" style="display: table-cell; white-space: nowrap; line-height: 1.5; max-width: 200px; text-align: center;"><span class="edgeLabel "><p>profile</p></span></div></foreignObject></g></g><g class="edgeLabel" transform="translate(361.71484375, 285)"><g class="label" data-id="id_User_Quiz_2" transform="translate(-27.125, -12)"><foreignObject width="54.25" height="44"><div xmlns="http://www.w3.org/1999/xhtml" class="labelBkg" style="display: table-cell; white-space: nowrap; line-height: 1.5; max-width: 200px; text-align: center;"><span class="edgeLabel "><p>quizzes</p></span></div></foreignObject></g></g><g class="edgeLabel" transform="translate(361.71484375, 599)"><g class="label" data-id="id_Quiz_Question_3" transform="translate(-34.25, -12)"><foreignObject width="68.5" height="44"><div xmlns="http://www.w3.org/1999/xhtml" class="labelBkg" style="display: table-cell; white-space: nowrap; line-height: 1.5; max-width: 200px; text-align: center;"><span class="edgeLabel "><p>questions</p></span></div></foreignObject></g></g><g class="edgeTerminals" transform="translate(115.08098471710453, 252.1772368944437)"><g class="inner" transform="translate(-3.0625, -8.25)"><foreignObject width="6.125" height="36.5" style="width: 9px; height: 12px;"><div xmlns="http://www.w3.org/1999/xhtml" style="display: table-cell; white-space: nowrap; line-height: 1.5;"><span class="edgeLabel "><p>1</p></span></div></foreignObject></g></g><g class="edgeTerminals" transform="translate(331.13736733184476, 271.0393718097948)"><g class="inner" transform="translate(-3.0625, -8.25)"><foreignObject width="6.125" height="36.5" style="width: 9px; height: 12px;"><div xmlns="http://www.w3.org/1999/xhtml" style="display: table-cell; white-space: nowrap; line-height: 1.5;"><span class="edgeLabel "><p>1</p></span></div></foreignObject></g></g><g class="edgeTerminals" transform="translate(346.7148418750001, 579.4999983928572)"><g class="inner" transform="translate(-3.0625, -8.25)"><foreignObject width="6.125" height="36.5" style="width: 9px; height: 12px;"><div xmlns="http://www.w3.org/1999/xhtml" style="display: table-cell; white-space: nowrap; line-height: 1.5;"><span class="edgeLabel "><p>1</p></span></div></foreignObject></g></g><g class="edgeTerminals" transform="translate(117.83203062499999, 347.49999946428574)"><g class="inner" transform="translate(-3.0625, -8.25)"></g><foreignObject width="6.125" height="36.5" style="width: 9px; height: 12px;"><div xmlns="http://www.w3.org/1999/xhtml" style="display: table-cell; white-space: nowrap; line-height: 1.5;"><span class="edgeLabel "><p>1</p></span></div></foreignObject></g><g class="edgeTerminals" transform="translate(371.7148418749999, 299.49999839285715)"><g class="inner" transform="translate(-2.140625, -8.25)"></g><foreignObject width="4.28125" height="36.5" style="width: 9px; height: 12px;"><div xmlns="http://www.w3.org/1999/xhtml" style="display: table-cell; white-space: nowrap; line-height: 1.5;"><span class="edgeLabel "><p>*</p></span></div></foreignObject></g><g class="edgeTerminals" transform="translate(371.7148418749999, 613.4999983928572)"><g class="inner" transform="translate(-6.125, -8.25)"></g><foreignObject width="12.25" height="36.5" style="width: 18px; height: 12px;"><div xmlns="http://www.w3.org/1999/xhtml" style="display: table-cell; white-space: nowrap; line-height: 1.5;"><span class="edgeLabel "><p>10</p></span></div></foreignObject></g></g><g class="nodes"><g class="node default " id="classId-User-0" transform="translate(234.7734375, 128)"><g class="basic label-container"><path d="M-103.58984375 -120 L103.58984375 -120 L103.58984375 120 L-103.58984375 120" stroke="none" stroke-width="0" fill="#ECECFF" style=""></path><path d="M-103.58984375 -120 C-22.318698887206025 -120, 58.95244597558795 -120, 103.58984375 -120 M-103.58984375 -120 C-20.739281554561174 -120, 62.11128064087765 -120, 103.58984375 -120 M103.58984375 -120 C103.58984375 -64.72770370576632, 103.58984375 -9.455407411532647, 103.58984375 120 M103.58984375 -120 C103.58984375 -24.96409781855381, 103.58984375 70.07180436289238, 103.58984375 120 M103.58984375 120 C42.0963879878835 120, -19.397067774232994 120, -103.58984375 120 M103.58984375 120 C30.020347296469538 120, -43.549149157060924 120, -103.58984375 120 M-103.58984375 120 C-103.58984375 33.089318614802295, -103.58984375 -53.82136277039541, -103.58984375 -120 M-103.58984375 120 C-103.58984375 68.97375577564232, -103.58984375 17.947511551284634, -103.58984375 -120" stroke="#9370DB" stroke-width="1.3" fill="none" stroke-dasharray="0 0" style=""></path></g><g class="annotation-group text" transform="translate(0, -96)"></g><g class="label-group text" transform="translate(-17.7890625, -96)"><g class="label" style="font-weight: bolder" transform="translate(0,-12)"><foreignObject width="35.578125" height="44"><div xmlns="http://www.w3.org/1999/xhtml" style="display: table-cell; white-space: nowrap; line-height: 1.5; max-width: 84px; text-align: center;"><span class="nodeLabel markdown-node-label" style=""><p>User</p></span></div></foreignObject></g></g><g class="members-group text" transform="translate(-91.58984375, -48)"><g class="label" style="" transform="translate(0,-12)"><foreignObject width="43.140625" height="44"><div xmlns="http://www.w3.org/1999/xhtml" style="display: table-cell; white-space: nowrap; line-height: 1.5; max-width: 98px; text-align: center;"><span class="nodeLabel markdown-node-label" style=""><p>+int id</p></span></div></foreignObject></g><g class="label" style="" transform="translate(0,12)"><foreignObject width="69.796875" height="44"><div xmlns="http://www.w3.org/1999/xhtml" style="display: table-cell; white-space: nowrap; line-height: 1.5; max-width: 124px; text-align: center;"><span class="nodeLabel markdown-node-label" style=""><p>+str email</p></span></div></foreignObject></g><g class="label" style="" transform="translate(0,36)"><foreignObject width="94.4375" height="44"><div xmlns="http://www.w3.org/1999/xhtml" style="display: table-cell; white-space: nowrap; line-height: 1.5; max-width: 149px; text-align: center;"><span class="nodeLabel markdown-node-label" style=""><p>+bool is_staff</p></span></div></foreignObject></g><g class="label" style="" transform="translate(0,60)"><foreignObject width="157.90625" height="44"><div xmlns="http://www.w3.org/1999/xhtml" style="display: table-cell; white-space: nowrap; line-height: 1.5; max-width: 212px; text-align: center;"><span class="nodeLabel markdown-node-label" style=""><p>+datetime date_joined</p></span></div></foreignObject></g></g><g class="methods-group text" transform="translate(-91.58984375, 72)"><g class="label" style="" transform="translate(0,-12)"><foreignObject width="165.390625" height="44"><div xmlns="http://www.w3.org/1999/xhtml" style="display: table-cell; white-space: nowrap; line-height: 1.5; max-width: 220px; text-align: center;"><span class="nodeLabel markdown-node-label" style=""><p>+str username(= email)</p></span></div></foreignObject></g><g class="label" style="" transform="translate(0,12)"><foreignObject width="154.296875" height="44"><div xmlns="http://www.w3.org/1999/xhtml" style="display: table-cell; white-space: nowrap; line-height: 1.5; max-width: 209px; text-align: center;"><span class="nodeLabel markdown-node-label" style=""><p>+str password(haché)</p></span></div></foreignObject></g></g><g class="divider" style=""><path d="M-103.58984375 -72 C-55.17108136134587 -72, -6.752318972691739 -72, 103.58984375 -72 M-103.58984375 -72 C-23.92594808779566 -72, 55.73794757440868 -72, 103.58984375 -72" stroke="#9370DB" stroke-width="1.3" fill="none" stroke-dasharray="0 0" style=""></path></g><g class="divider" style=""><path d="M-103.58984375 48 C-58.634267347347844 48, -13.678690944695688 48, 103.58984375 48 M-103.58984375 48 C-58.71222450411643 48, -13.834605258232855 48, 103.58984375 48" stroke="#9370DB" stroke-width="1.3" fill="none" stroke-dasharray="0 0" style=""></path></g></g><g class="node default " id="classId-Profile-1" transform="translate(107.83203125, 442)"><g class="basic label-container"><path d="M-99.83203125 -72 L99.83203125 -72 L99.83203125 72 L-99.83203125 72" stroke="none" stroke-width="0" fill="#ECECFF" style=""></path><path d="M-99.83203125 -72 C-24.475018498727863 -72, 50.881994252544274 -72, 99.83203125 -72 M-99.83203125 -72 C-34.31260852494506 -72, 31.206814200109875 -72, 99.83203125 -72 M99.83203125 -72 C99.83203125 -19.92602865816786, 99.83203125 32.14794268366428, 99.83203125 72 M99.83203125 -72 C99.83203125 -31.870382124438656, 99.83203125 8.259235751122688, 99.83203125 72 M99.83203125 72 C46.227935050794194 72, -7.376161148411612 72, -99.83203125 72 M99.83203125 72 C23.411481283102518 72, -53.009068683794965 72, -99.83203125 72 M-99.83203125 72 C-99.83203125 31.189304649347385, -99.83203125 -9.62139070130523, -99.83203125 -72 M-99.83203125 72 C-99.83203125 32.83785843534263, -99.83203125 -6.324283129314736, -99.83203125 -72" stroke="#9370DB" stroke-width="1.3" fill="none" stroke-dasharray="0 0" style=""></path></g><g class="annotation-group text" transform="translate(0, -48)"></g><g class="label-group text" transform="translate(-24.8984375, -48)"><g class="label" style="font-weight: bolder" transform="translate(0,-12)"><foreignObject width="49.796875" height="44"><div xmlns="http://www.w3.org/1999/xhtml" style="display: table-cell; white-space: nowrap; line-height: 1.5; max-width: 95px; text-align: center;"><span class="nodeLabel markdown-node-label" style=""><p>Profile</p></span></div></foreignObject></g></g><g class="members-group text" transform="translate(-87.83203125, 0)"><g class="label" style="" transform="translate(0,-12)"><foreignObject width="142.75" height="44"><div xmlns="http://www.w3.org/1999/xhtml" style="display: table-cell; white-space: nowrap; line-height: 1.5; max-width: 197px; text-align: center;"><span class="nodeLabel markdown-node-label" style=""><p>+bool email_verified</p></span></div></foreignObject></g><g class="label" style="" transform="translate(0,12)"><foreignObject width="150.765625" height="44"><div xmlns="http://www.w3.org/1999/xhtml" style="display: table-cell; white-space: nowrap; line-height: 1.5; max-width: 206px; text-align: center;"><span class="nodeLabel markdown-node-label" style=""><p>+datetime created_at</p></span></div></foreignObject></g></g><g class="methods-group text" transform="translate(-87.83203125, 72)"></g><g class="divider" style=""><path d="M-99.83203125 -24 C-44.410222314581866 -24, 11.011586620836269 -24, 99.83203125 -24 M-99.83203125 -24 C-49.144776906871584 -24, 1.5424774362568314 -24, 99.83203125 -24" stroke="#9370DB" stroke-width="1.3" fill="none" stroke-dasharray="0 0" style=""></path></g><g class="divider" style=""><path d="M-99.83203125 48 C-36.90722371978051 48, 26.01758381043898 48, 99.83203125 48 M-99.83203125 48 C-29.37251982592072 48, 41.08699159815856 48, 99.83203125 48" stroke="#9370DB" stroke-width="1.3" fill="none" stroke-dasharray="0 0" style=""></path></g></g><g class="node default " id="classId-Quiz-2" transform="translate(361.71484375, 442)"><g class="basic label-container"><path d="M-104.05078125 -120 L104.05078125 -120 L104.05078125 120 L-104.05078125 120" stroke="none" stroke-width="0" fill="#ECECFF" style=""></path><path d="M-104.05078125 -120 C-25.263290038031556 -120, 53.52420117393689 -120, 104.05078125 -120 M-104.05078125 -120 C-53.06118359379469 -120, -2.0715859375893757 -120, 104.05078125 -120 M104.05078125 -120 C104.05078125 -25.047629366152165, 104.05078125 69.90474126769567, 104.05078125 120 M104.05078125 -120 C104.05078125 -66.20101740411403, 104.05078125 -12.402034808228066, 104.05078125 120 M104.05078125 120 C36.802307651020186 120, -30.446165947959628 120, -104.05078125 120 M104.05078125 120 C43.25573421906718 120, -17.539312811865642 120, -104.05078125 120 M-104.05078125 120 C-104.05078125 40.08518385808418, -104.05078125 -39.82963228383164, -104.05078125 -120 M-104.05078125 120 C-104.05078125 58.42726963276199, -104.05078125 -3.1454607344760177, -104.05078125 -120" stroke="#9370DB" stroke-width="1.3" fill="none" stroke-dasharray="0 0" style=""></path></g><g class="annotation-group text" transform="translate(0, -96)"></g><g class="label-group text" transform="translate(-17.3359375, -96)"><g class="label" style="font-weight: bolder" transform="translate(0,-12)"><foreignObject width="34.671875" height="44"><div xmlns="http://www.w3.org/1999/xhtml" style="display: table-cell; white-space: nowrap; line-height: 1.5; max-width: 83px; text-align: center;"><span class="nodeLabel markdown-node-label" style=""><p>Quiz</p></span></div></foreignObject></g></g><g class="members-group text" transform="translate(-92.05078125, -48)"><g class="label" style="" transform="translate(0,-12)"><foreignObject width="43.140625" height="44"><div xmlns="http://www.w3.org/1999/xhtml" style="display: table-cell; white-space: nowrap; line-height: 1.5; max-width: 98px; text-align: center;"><span class="nodeLabel markdown-node-label" style=""><p>+int id</p></span></div></foreignObject></g><g class="label" style="" transform="translate(0,12)"><foreignObject width="56.46875" height="44"><div xmlns="http://www.w3.org/1999/xhtml" style="display: table-cell; white-space: nowrap; line-height: 1.5; max-width: 111px; text-align: center;"><span class="nodeLabel markdown-node-label" style=""><p>+str title</p></span></div></foreignObject></g><g class="label" style="" transform="translate(0,36)"><foreignObject width="114.28125" height="44"><div xmlns="http://www.w3.org/1999/xhtml" style="display: table-cell; white-space: nowrap; line-height: 1.5; max-width: 169px; text-align: center;"><span class="nodeLabel markdown-node-label" style=""><p>+str source_text</p></span></div></foreignObject></g><g class="label" style="" transform="translate(0,60)"><foreignObject width="150.765625" height="44"><div xmlns="http://www.w3.org/1999/xhtml" style="display: table-cell; white-space: nowrap; line-height: 1.5; max-width: 206px; text-align: center;"><span class="nodeLabel markdown-node-label" style=""><p>+datetime created_at</p></span></div></foreignObject></g><g class="label" style="" transform="translate(0,84)"><foreignObject width="155.234375" height="44"><div xmlns="http://www.w3.org/1999/xhtml" style="display: table-cell; white-space: nowrap; line-height: 1.5; max-width: 210px; text-align: center;"><span class="nodeLabel markdown-node-label" style=""><p>+datetime updated_at</p></span></div></foreignObject></g></g><g class="methods-group text" transform="translate(-92.05078125, 96)"><g class="label" style="" transform="translate(0,-12)"><foreignObject width="166.765625" height="44"><div xmlns="http://www.w3.org/1999/xhtml" style="display: table-cell; white-space: nowrap; line-height: 1.5; max-width: 221px; text-align: center;"><span class="nodeLabel markdown-node-label" style=""><p>+int score(/10, nullable)</p></span></div></foreignObject></g></g><g class="divider" style=""><path d="M-104.05078125 -72 C-30.97218515477917 -72, 42.10641094044166 -72, 104.05078125 -72 M-104.05078125 -72 C-34.195744072857465 -72, 35.65929310428507 -72, 104.05078125 -72" stroke="#9370DB" stroke-width="1.3" fill="none" stroke-dasharray="0 0" style=""></path></g><g class="divider" style=""><path d="M-104.05078125 72 C-26.61335179136809 72, 50.82407766726382 72, 104.05078125 72 M-104.05078125 72 C-60.82031699099509 72, -17.589852731990177 72, 104.05078125 72" stroke="#9370DB" stroke-width="1.3" fill="none" stroke-dasharray="0 0" style=""></path></g></g><g class="node default " id="classId-Question-3" transform="translate(361.71484375, 744)"><g class="basic label-container"><path d="M-130.9609375 -108 L130.9609375 -108 L130.9609375 108 L-130.9609375 108" stroke="none" stroke-width="0" fill="#ECECFF" style=""></path><path d="M-130.9609375 -108 C-60.47638181827908 -108, 10.00817386344184 -108, 130.9609375 -108 M-130.9609375 -108 C-53.20674426305192 -108, 24.547448973896167 -108, 130.9609375 -108 M130.9609375 -108 C130.9609375 -23.488903936500336, 130.9609375 61.02219212699933, 130.9609375 108 M130.9609375 -108 C130.9609375 -41.50618103630917, 130.9609375 24.987637927381655, 130.9609375 108 M130.9609375 108 C50.573802302378226 108, -29.813332895243548 108, -130.9609375 108 M130.9609375 108 C60.609452977685436 108, -9.742031544629128 108, -130.9609375 108 M-130.9609375 108 C-130.9609375 58.92541559002978, -130.9609375 9.850831180059558, -130.9609375 -108 M-130.9609375 108 C-130.9609375 56.277883538399685, -130.9609375 4.55576707679937, -130.9609375 -108" stroke="#9370DB" stroke-width="1.3" fill="none" stroke-dasharray="0 0" style=""></path></g><g class="annotation-group text" transform="translate(0, -84)"></g><g class="label-group text" transform="translate(-34.671875, -84)"><g class="label" style="font-weight: bolder" transform="translate(0,-12)"><foreignObject width="69.34375" height="44"><div xmlns="http://www.w3.org/1999/xhtml" style="display: table-cell; white-space: nowrap; line-height: 1.5; max-width: 114px; text-align: center;"><span class="nodeLabel markdown-node-label" style=""><p>Question</p></span></div></foreignObject></g></g><g class="members-group text" transform="translate(-118.9609375, -36)"><g class="label" style="" transform="translate(0,-12)"><foreignObject width="81.359375" height="44"><div xmlns="http://www.w3.org/1999/xhtml" style="display: table-cell; white-space: nowrap; line-height: 1.5; max-width: 136px; text-align: center;"><span class="nodeLabel markdown-node-label" style=""><p>+str prompt</p></span></div></foreignObject></g></g><g class="methods-group text" transform="translate(-118.9609375, 12)"><g class="label" style="" transform="translate(0,-12)"><foreignObject width="115.1875" height="44"><div xmlns="http://www.w3.org/1999/xhtml" style="display: table-cell; white-space: nowrap; line-height: 1.5; max-width: 170px; text-align: center;"><span class="nodeLabel markdown-node-label" style=""><p>+int index(1..10)</p></span></div></foreignObject></g><g class="label" style="" transform="translate(0,12)"><foreignObject width="156.09375" height="44"><div xmlns="http://www.w3.org/1999/xhtml" style="display: table-cell; white-space: nowrap; line-height: 1.5; max-width: 211px; text-align: center;"><span class="nodeLabel markdown-node-label" style=""><p>+json options(4 choix)</p></span></div></foreignObject></g><g class="label" style="" transform="translate(0,36)"><foreignObject width="164.078125" height="44"><div xmlns="http://www.w3.org/1999/xhtml" style="display: table-cell; white-space: nowrap; line-height: 1.5; max-width: 219px; text-align: center;"><span class="nodeLabel markdown-node-label" style=""><p>+int correct_index(0..3)</p></span></div></foreignObject></g><g class="label" style="" transform="translate(0,60)"><foreignObject width="203.25" height="44"><div xmlns="http://www.w3.org/1999/xhtml" style="display: table-cell; white-space: nowrap; line-height: 1.5; max-width: 258px; text-align: center;"><span class="nodeLabel markdown-node-label" style=""><p>+int selected_index(nullable)</p></span></div></foreignObject></g></g><g class="divider" style=""><path d="M-130.9609375 -60 C-48.10930609722942 -60, 34.74232530554116 -60, 130.9609375 -60 M-130.9609375 -60 C-43.17065209717887 -60, 44.61963330564225 -60, 130.9609375 -60" stroke="#9370DB" stroke-width="1.3" fill="none" stroke-dasharray="0 0" style=""></path></g><g class="divider" style=""><path d="M-130.9609375 -12 C-66.54661747050679 -12, -2.132297441013577 -12, 130.9609375 -12 M-130.9609375 -12 C-63.298112275495015 -12, 4.36471294900997 -12, 130.9609375 -12" stroke="#9370DB" stroke-width="1.3" fill="none" stroke-dasharray="0 0" style=""></path></g></g><g class="node default " id="classId-LLMConfig-4" transform="translate(480.16796875, 128)"><g class="basic label-container"><path d="M-91.8046875 -120 L91.8046875 -120 L91.8046875 120 L-91.8046875 120" stroke="none" stroke-width="0" fill="#ECECFF" style=""></path><path d="M-91.8046875 -120 C-44.1163584737498 -120, 3.571970552500403 -120, 91.8046875 -120 M-91.8046875 -120 C-33.98037643952587 -120, 23.84393462094826 -120, 91.8046875 -120 M91.8046875 -120 C91.8046875 -42.105623485528966, 91.8046875 35.78875302894207, 91.8046875 120 M91.8046875 -120 C91.8046875 -67.85143540954049, 91.8046875 -15.702870819080971, 91.8046875 120 M91.8046875 120 C39.91573062520092 120, -11.973226249598156 120, -91.8046875 120 M91.8046875 120 C52.069752565881345 120, 12.33481763176269 120, -91.8046875 120 M-91.8046875 120 C-91.8046875 53.26898486633138, -91.8046875 -13.46203026733724, -91.8046875 -120 M-91.8046875 120 C-91.8046875 35.25774343725571, -91.8046875 -49.484513125488576, -91.8046875 -120" stroke="#9370DB" stroke-width="1.3" fill="none" stroke-dasharray="0 0" style=""></path></g><g class="annotation-group text" transform="translate(-40.921875, -96)"><g class="label" style="" transform="translate(0,-12)"><foreignObject width="81.84375" height="44"><div xmlns="http://www.w3.org/1999/xhtml" style="display: table-cell; white-space: nowrap; line-height: 1.5; max-width: 132px; text-align: center;"><span class="nodeLabel markdown-node-label" style=""><p>«singleton»</p></span></div></foreignObject></g></g><g class="label-group text" transform="translate(-41.765625, -72)"><g class="label" style="font-weight: bolder" transform="translate(0,-12)"><foreignObject width="83.53125" height="44"><div xmlns="http://www.w3.org/1999/xhtml" style="display: table-cell; white-space: nowrap; line-height: 1.5; max-width: 127px; text-align: center;"><span class="nodeLabel markdown-node-label" style=""><p>LLMConfig</p></span></div></foreignObject></g></g><g class="members-group text" transform="translate(-79.8046875, -24)"><g class="label" style="" transform="translate(0,-12)"><foreignObject width="92.0625" height="44"><div xmlns="http://www.w3.org/1999/xhtml" style="display: table-cell; white-space: nowrap; line-height: 1.5; max-width: 147px; text-align: center;"><span class="nodeLabel markdown-node-label" style=""><p>+str backend</p></span></div></foreignObject></g><g class="label" style="" transform="translate(0,12)"><foreignObject width="75.140625" height="44"><div xmlns="http://www.w3.org/1999/xhtml" style="display: table-cell; white-space: nowrap; line-height: 1.5; max-width: 130px; text-align: center;"><span class="nodeLabel markdown-node-label" style=""><p>+str model</p></span></div></foreignObject></g><g class="label" style="" transform="translate(0,36)"><foreignObject width="106.296875" height="44"><div xmlns="http://www.w3.org/1999/xhtml" style="display: table-cell; white-space: nowrap; line-height: 1.5; max-width: 161px; text-align: center;"><span class="nodeLabel markdown-node-label" style=""><p>+json api_keys</p></span></div></foreignObject></g><g class="label" style="" transform="translate(0,60)"><foreignObject width="117.84375" height="44"><div xmlns="http://www.w3.org/1999/xhtml" style="display: table-cell; white-space: nowrap; line-height: 1.5; max-width: 173px; text-align: center;"><span class="nodeLabel markdown-node-label" style=""><p>+str ollama_host</p></span></div></foreignObject></g><g class="label" style="" transform="translate(0,84)"><foreignObject width="83.15625" height="44"><div xmlns="http://www.w3.org/1999/xhtml" style="display: table-cell; white-space: nowrap; line-height: 1.5; max-width: 138px; text-align: center;"><span class="nodeLabel markdown-node-label" style=""><p>+int timeout</p></span></div></foreignObject></g></g><g class="methods-group text" transform="translate(-79.8046875, 120)"></g><g class="divider" style=""><path d="M-91.8046875 -48 C-54.69553996743539 -48, -17.586392434870774 -48, 91.8046875 -48 M-91.8046875 -48 C-32.25434236004376 -48, 27.296002779912484 -48, 91.8046875 -48" stroke="#9370DB" stroke-width="1.3" fill="none" stroke-dasharray="0 0" style=""></path></g><g class="divider" style=""><path d="M-91.8046875 96 C-27.838643540178744 96, 36.12740041964251 96, 91.8046875 96 M-91.8046875 96 C-32.94315769764886 96, 25.918372104702286 96, 91.8046875 96" stroke="#9370DB" stroke-width="1.3" fill="none" stroke-dasharray="0 0" style=""></path></g></g><g class="node default " id="classId-SiteConfig-5" transform="translate(767.61328125, 128)"><g class="basic label-container"><path d="M-145.640625 -108 L145.640625 -108 L145.640625 108 L-145.640625 108" stroke="none" stroke-width="0" fill="#ECECFF" style=""></path><path d="M-145.640625 -108 C-53.204789304140576 -108, 39.23104639171885 -108, 145.640625 -108 M-145.640625 -108 C-42.53455298851689 -108, 60.571519022966214 -108, 145.640625 -108 M145.640625 -108 C145.640625 -26.978235424488744, 145.640625 54.04352915102251, 145.640625 108 M145.640625 -108 C145.640625 -62.369626583948275, 145.640625 -16.73925316789655, 145.640625 108 M145.640625 108 C86.39414625814098 108, 27.147667516281956 108, -145.640625 108 M145.640625 108 C81.97186870477617 108, 18.303112409552355 108, -145.640625 108 M-145.640625 108 C-145.640625 40.441277877876615, -145.640625 -27.11744424424677, -145.640625 -108 M-145.640625 108 C-145.640625 42.744156720420335, -145.640625 -22.51168655915933, -145.640625 -108" stroke="#9370DB" stroke-width="1.3" fill="none" stroke-dasharray="0 0" style=""></path></g><g class="annotation-group text" transform="translate(-40.921875, -84)"><g class="label" style="" transform="translate(0,-12)"><foreignObject width="81.84375" height="44"><div xmlns="http://www.w3.org/1999/xhtml" style="display: table-cell; white-space: nowrap; line-height: 1.5; max-width: 132px; text-align: center;"><span class="nodeLabel markdown-node-label" style=""><p>«singleton»</p></span></div></foreignObject></g></g><g class="label-group text" transform="translate(-40, -60)"><g class="label" style="font-weight: bolder" transform="translate(0,-12)"><foreignObject width="80" height="44"><div xmlns="http://www.w3.org/1999/xhtml" style="display: table-cell; white-space: nowrap; line-height: 1.5; max-width: 124px; text-align: center;"><span class="nodeLabel markdown-node-label" style=""><p>SiteConfig</p></span></div></foreignObject></g></g><g class="members-group text" transform="translate(-133.640625, -12)"><g class="label" style="" transform="translate(0,-12)"><foreignObject width="107.1875" height="44"><div xmlns="http://www.w3.org/1999/xhtml" style="display: table-cell; white-space: nowrap; line-height: 1.5; max-width: 162px; text-align: center;"><span class="nodeLabel markdown-node-label" style=""><p>+str app_name</p></span></div></foreignObject></g><g class="label" style="" transform="translate(0,12)"><foreignObject width="144.546875" height="44"><div xmlns="http://www.w3.org/1999/xhtml" style="display: table-cell; white-space: nowrap; line-height: 1.5; max-width: 199px; text-align: center;"><span class="nodeLabel markdown-node-label" style=""><p>+bool allow_signups</p></span></div></foreignObject></g><g class="label" style="" transform="translate(0,36)"><foreignObject width="226.359375" height="44"><div xmlns="http://www.w3.org/1999/xhtml" style="display: table-cell; white-space: nowrap; line-height: 1.5; max-width: 281px; text-align: center;"><span class="nodeLabel markdown-node-label" style=""><p>+bool require_email_verification</p></span></div></foreignObject></g><g class="label" style="" transform="translate(0,60)"><foreignObject width="81.390625" height="44"><div xmlns="http://www.w3.org/1999/xhtml" style="display: table-cell; white-space: nowrap; line-height: 1.5; max-width: 137px; text-align: center;"><span class="nodeLabel markdown-node-label" style=""><p>+str banner</p></span></div></foreignObject></g></g><g class="methods-group text" transform="translate(-133.640625, 108)"></g><g class="divider" style=""><path d="M-145.640625 -36 C-81.50316841019121 -36, -17.365711820382415 -36, 145.640625 -36 M-145.640625 -36 C-38.51162554323477 -36, 68.61737391353046 -36, 145.640625 -36" stroke="#9370DB" stroke-width="1.3" fill="none" stroke-dasharray="0 0" style=""></path></g><g class="divider" style=""><path d="M-145.640625 84 C-43.27995439379514 84, 59.080716212409726 84, 145.640625 84 M-145.640625 84 C-60.11651678176645 84, 25.4075914364671 84, 145.640625 84" stroke="#9370DB" stroke-width="1.3" fill="none" stroke-dasharray="0 0" style=""></path></g></g></g></g></g></svg>